PathFileType	4	(X/Y/Z)	c:\Git\powerlifing_model_clean\simulations\HC835B\Session1\HC835B_OGW_0005\marker_experimental.trc
DataRate	CameraRate	NumFrames	NumMarkers	Units	OrigDataRate	OrigDataStartFrame	OrigNumFrames
240.000000	240.000000	4	38	mm	240.000000	52	418
Frame#	Time	RPSI			LPSI			RASI			LASI			RTH1			RTH2			RTH3			RTH4			RSK1			RSK2			RSK3			RSK4			RCAL1			RCAL2			RCAL3			RST			RPT			RTN			RFMB			RSMB			RVMB			RFMH			RSMH			RVMH			RPM			LTH1			LTH2			LTH3			LTH4			LSK1			LSK2			LSK3			LSK4			LCAL1			LCAL2			LCAL3			LFMH			LVMH			
		X1	Y1	Z1	X2	Y2	Z2	X3	Y3	Z3	X4	Y4	Z4	X5	Y5	Z5	X6	Y6	Z6	X7	Y7	Z7	X8	Y8	Z8	X9	Y9	Z9	X10	Y10	Z10	X11	Y11	Z11	X12	Y12	Z12	X13	Y13	Z13	X14	Y14	Z14	X15	Y15	Z15	X16	Y16	Z16	X17	Y17	Z17	X18	Y18	Z18	X19	Y19	Z19	X20	Y20	Z20	X21	Y21	Z21	X22	Y22	Z22	X23	Y23	Z23	X24	Y24	Z24	X25	Y25	Z25	X26	Y26	Z26	X27	Y27	Z27	X28	Y28	Z28	X29	Y29	Z29	X30	Y30	Z30	X31	Y31	Z31	X32	Y32	Z32	X33	Y33	Z33	X34	Y34	Z34	X35	Y35	Z35	X36	Y36	Z36	X37	Y37	Z37	X38	Y38	Z38	

53	0.2166666666666667	463.5115966796876	1088.50390625	-2179.853271484375	573.1541137695314	1081.278686523438	-2182.857666015625	408.5285644531251	1062.986694335938	-1963.789428710938	643.9110717773439	1040.2939453125	-1977.03125	339.1044616699219	791.4107055664065	-1957.897094726563	353.5917663574219	799.9197998046877	-1900.5400390625	357.1026611328126	722.6953735351564	-1911.989990234375	380.8515014648438	730.3156738281251	-1858.896362304688	414.6607055664064	276.9841003417969	-1915.945068359375	416.6109924316407	266.4766235351563	-1854.874145507813	422.0095825195314	222.327865600586	-1896.524291992188	436.9326477050782	213.4817352294922	-1839.08544921875	491.3207092285157	80.83239746093751	-1948.12109375	521.5472412109376	42.5376091003418	-1936.837280273438	458.4026489257814	44.02312469482423	-1945.933837890625	531.0343017578126	58.43345642089845	-1868.410766601563	430.5007629394532	57.38510513305665	-1888.625732421875	512.5509033203126	81.20808410644533	-1815.472290039063	505.9511718750001	67.17777252197267	-1781.535766601563	458.6886291503907	92.41629028320314	-1777.845581054688	415.0946655273439	35.68485641479493	-1845.9453125	503.1799926757814	43.52738571166993	-1726.74853515625	448.4608764648439	59.95579147338869	-1718.143798828125	392.8444213867189	33.0387077331543	-1767.796752929688	454.7317199707032	51.16347122192384	-1659.874633789063	723.4810180664064	760.8624267578126	-2078.3798828125	731.0714721679689	751.8386840820314	-2018.460327148438	729.5425415039064	678.9883422851564	-2054.478759765625	723.6218872070314	669.0785522460939	-1994.44140625	689.0128784179689	393.8339843750001	-2321.026611328125	700.3470458984376	343.2868957519532	-2308.2099609375	686.4768676757814	349.1760559082032	-2355.54541015625	681.0020141601564	296.0432739257813	-2336.884765625	610.9002685546876	321.6870422363282	-2476.81689453125	628.6762084960939	310.1962890625001	-2519.507568359375	573.3483276367189	304.7930908203126	-2501.03271484375	601.3416748046876	97.18499755859378	-2431.3486328125	684.8205566406251	125.5804061889649	-2498.569091796875	
54	0.2208333333333333	462.762664794922	1090.139404296875	-2173.077392578125	572.4093627929689	1082.903442382813	-2176.091796875	408.2251892089845	1064.567260742188	-1957.189575195313	643.6049804687501	1041.951293945313	-1970.264892578125	338.8187866210938	792.3267822265627	-1952.593994140625	353.5757751464844	800.228454589844	-1895.342163085938	357.0226135253907	723.0669555664064	-1907.486572265625	380.9384460449219	730.2694091796876	-1854.4599609375	415.2073364257814	277.3554687500001	-1915.23291015625	416.6861572265626	266.4077148437501	-1854.162963867188	422.4400634765626	222.4473419189454	-1896.1572265625	436.8598937988282	213.1849822998047	-1838.649047851563	491.3930969238282	80.88069915771486	-1948.151489257813	521.5968627929689	42.51550292968751	-1936.874145507813	458.4419555664064	44.02687072753907	-1945.9375	531.1163940429689	58.44272994995119	-1868.447998046875	430.5958862304689	57.43891525268556	-1888.619262695313	512.6224365234376	81.09897613525392	-1815.387573242188	506.0859985351564	67.0831756591797	-1781.53125	458.8506164550782	92.3647918701172	-1777.83740234375	415.1158142089845	35.73145294189454	-1845.9599609375	503.2443237304689	43.44547271728516	-1726.718383789063	448.5759582519532	59.8767433166504	-1718.140380859375	392.852264404297	33.05246734619141	-1767.818603515625	454.7723388671876	50.95354461669923	-1659.8095703125	723.0505371093751	762.1336059570314	-2068.544189453125	731.2961425781251	753.9638061523439	-2008.631591796875	729.2921752929689	680.5481567382814	-2043.704833984375	724.2896118164064	671.5195922851564	-1983.477294921875	688.8480834960939	396.6809997558595	-2307.458251953125	699.9755859375001	346.0328369140626	-2294.623046875	685.9017333984376	352.0512084960938	-2341.92333984375	680.5184326171876	298.8789672851563	-2323.28515625	609.6740112304689	324.2669372558594	-2464.020263671875	627.9732666015626	312.4744567871094	-2506.415771484375	572.4984130859376	306.8688354492188	-2488.369140625	601.2871704101564	100.1385192871094	-2416.247802734375	685.2164916992189	128.4028472900391	-2482.95703125	
55	0.225	461.9783020019532	1091.838012695313	-2166.324951171875	571.6364746093751	1084.698608398438	-2169.390625	407.9209289550782	1066.507690429688	-1950.184936523438	643.3811035156251	1043.583862304688	-1963.527954101563	338.6802978515626	792.9287719726565	-1947.860961914063	353.4822998046876	800.6363525390627	-1890.197509765625	356.8212585449219	723.7042846679689	-1902.852905273438	381.0358886718751	730.2623291015626	-1850.002807617188	415.7113647460939	277.6953125000001	-1914.610107421875	416.7698364257814	266.4165039062501	-1853.4482421875	422.6985168457032	222.9084930419922	-1895.625732421875	436.7309570312501	213.0667724609376	-1838.236328125	491.4430541992189	80.91221618652345	-1948.186767578125	521.6503906250001	42.53264617919923	-1936.927368164063	458.4905090332032	44.11222839355469	-1945.993774414063	531.2160034179689	58.51447677612306	-1868.489135742188	430.663299560547	57.52608489990236	-1888.636474609375	512.7433471679689	81.05566406250001	-1815.379150390625	506.2051696777345	67.02285766601564	-1781.538330078125	458.971160888672	92.32866668701173	-1777.79541015625	415.1377258300782	35.82875061035157	-1845.964599609375	503.2828674316407	43.39461517333985	-1726.679809570313	448.6629943847657	59.82994842529298	-1718.139404296875	392.8914794921876	33.09737396240235	-1767.785278320313	454.8096313476564	50.75587844848634	-1659.779541015625	722.6888427734376	763.6125488281251	-2058.69921875	731.4959106445314	756.2740478515626	-1998.741333007813	729.3433837890626	682.3524780273439	-2032.825805664063	724.9203491210939	674.2047729492189	-1972.39990234375	688.5217895507814	399.3589172363282	-2293.794921875	699.6806030273439	348.8027343750001	-2281.068359375	685.2897949218751	354.7783203125001	-2328.262939453125	679.8315429687501	301.5133361816407	-2309.5263671875	608.5585937500001	326.4874877929688	-2451.244873046875	627.5015258789064	314.2152099609376	-2493.22705078125	571.8116455078126	308.5400695800782	-2475.8564453125	601.0305175781251	102.9911041259766	-2400.580322265625	685.5703125000001	130.959945678711	-2466.59375	
56	0.2291666666666667	461.1532287597657	1093.62255859375	-2159.603759765625	570.8234252929689	1086.54736328125	-2162.69580078125	407.6255798339845	1067.996215820313	-1943.569458007813	643.2702026367189	1045.40966796875	-1956.90283203125	338.3526916503907	794.0734863281252	-1942.573486328125	353.4956054687501	801.0194091796877	-1885.161010742188	356.8281555175782	724.0283813476564	-1898.768188476563	381.1909484863282	730.3067626953126	-1845.78662109375	416.1510009765626	278.0826110839844	-1913.918090820313	416.7620849609376	266.4206848144532	-1852.896362304688	422.9388427734376	223.2043762207032	-1895.25537109375	436.6336364746095	212.9628601074219	-1837.854614257813	491.489471435547	80.93441009521486	-1948.245971679688	521.6765136718751	42.5691032409668	-1936.964233398438	458.5199584960939	44.16734695434571	-1946.021728515625	531.2410888671876	58.50419235229494	-1868.54638671875	430.7103576660157	57.61784744262697	-1888.645629882813	512.8469848632814	81.03203582763673	-1815.393310546875	506.2874755859376	66.98083496093751	-1781.5498046875	459.0652465820314	92.29772949218751	-1777.818237304688	415.1781311035157	35.89223861694337	-1846.000122070313	503.3271789550782	43.31447219848634	-1726.638671875	448.7456970214845	59.7758026123047	-1718.127075195313	392.9652099609376	33.13095474243165	-1767.818969726563	454.8549804687501	50.65695571899415	-1659.76904296875	722.2911987304689	765.1275024414064	-2048.760009765625	731.7036743164064	758.5926513671876	-1988.821533203125	729.4198608398439	684.2391357421876	-2021.873046875	725.5299682617189	676.9135131835939	-1961.303588867188	688.0605468750001	401.9089660644532	-2280.087890625	699.2233886718751	351.2835083007813	-2267.29541015625	684.5794677734376	357.2517700195313	-2314.459228515625	679.4030761718751	304.1275939941407	-2295.7158203125	607.5598754882814	328.3089599609376	-2438.444580078125	627.1716918945314	315.5598754882813	-2479.963134765625	571.2723999023439	309.8179931640626	-2463.3125	600.5669555664064	105.5760955810547	-2384.431884765625	685.9294433593751	132.9812927246094	-2449.83251953125	
